<svg width="240" height="240" viewBox="0 0 240 240" fill="none" xmlns="http://www.w3.org/2000/svg">
<path d="M120 240C186.274 240 240 186.274 240 120C240 53.7258 186.274 0 120 0C53.7258 0 0 53.7258 0 120C0 186.274 53.7258 240 120 240Z" fill="white" fill-opacity="0.1"/>
<mask id="mask0_5191_34893" style="mask-type:alpha" maskUnits="userSpaceOnUse" x="0" y="0" width="240" height="240">
<path d="M120 240C186.274 240 240 186.274 240 120C240 53.7258 186.274 0 120 0C53.7258 0 0 53.7258 0 120C0 186.274 53.7258 240 120 240Z" fill="url(#paint0_linear_5191_34893)"/>
</mask>
<g mask="url(#mask0_5191_34893)">
<path className="device-bg" d="M188.8 68.7969H51.2002C46.7819 68.7969 43.2002 72.3786 43.2002 76.7969V244.797C43.2002 249.215 46.7819 252.797 51.2002 252.797H188.8C193.218 252.797 196.8 249.215 196.8 244.797V76.7969C196.8 72.3786 193.218 68.7969 188.8 68.7969Z" fill="currentColor"/>
<path className="dot-dark" d="M148.8 94.6C151.451 94.6 153.6 92.451 153.6 89.8C153.6 87.149 151.451 85 148.8 85C146.149 85 144 87.149 144 89.8C144 92.451 146.149 94.6 148.8 94.6Z" fill="currentColor" opacity="0.5"/>
<path className="dot-dark" d="M162.4 94.6C165.051 94.6 167.2 92.451 167.2 89.8C167.2 87.149 165.051 85 162.4 85C159.749 85 157.6 87.149 157.6 89.8C157.6 92.451 159.749 94.6 162.4 94.6Z" fill="currentColor" opacity="0.5"/>
<path className="dot-accent" d="M176 94.6C178.651 94.6 180.8 92.451 180.8 89.8C180.8 87.149 178.651 85 176 85C173.349 85 171.2 87.149 171.2 89.8C171.2 92.451 173.349 94.6 176 94.6Z" fill="currentColor"/>
</g>
<path className="bar-dark" d="M105.6 85H64.0002C61.3492 85 59.2002 87.149 59.2002 89.8C59.2002 92.451 61.3492 94.6 64.0002 94.6H105.6C108.251 94.6 110.4 92.451 110.4 89.8C110.4 87.149 108.251 85 105.6 85Z" fill="currentColor" opacity="0.5"/>
<path className="bar-dark" d="M105.6 165H64.0002C61.3492 165 59.2002 167.149 59.2002 169.8C59.2002 172.451 61.3492 174.6 64.0002 174.6H105.6C108.251 174.6 110.4 172.451 110.4 169.8C110.4 167.149 108.251 165 105.6 165Z" fill="currentColor" opacity="0.5"/>
<path className="outline-accent" d="M172.8 108.805H67.1998C63.6652 108.805 60.7998 112.983 60.7998 118.138V141.471C60.7998 146.626 63.6652 150.805 67.1998 150.805H172.8C176.334 150.805 179.2 146.626 179.2 141.471V118.138C179.2 112.983 176.334 108.805 172.8 108.805Z" stroke="currentColor" stroke-width="3"/>
<path className="bar-dark" d="M172.8 187.398H67.2002C62.7819 187.398 59.2002 190.98 59.2002 195.398V208.198C59.2002 212.617 62.7819 216.198 67.2002 216.198H172.8C177.218 216.198 180.8 212.617 180.8 208.198V195.398C180.8 190.98 177.218 187.398 172.8 187.398Z" fill="currentColor" opacity="0.5"/>
<path className="circle-dark" d="M160.6 152.805C165.018 152.805 168.6 149.223 168.6 144.805C168.6 140.386 165.018 136.805 160.6 136.805C156.182 136.805 152.6 140.386 152.6 144.805C152.6 149.223 156.182 152.805 160.6 152.805Z" fill="currentColor" opacity="0.5"/>
<path className="hand-accent" d="M166.851 178.996C165.571 178.996 164.376 178.996 163.288 178.927C161.948 178.836 160.659 178.378 159.562 177.602C158.466 176.826 157.605 175.762 157.074 174.529L150.323 161.188C149.828 160.611 149.581 159.862 149.635 159.105C149.69 158.347 150.042 157.641 150.614 157.141C151.083 156.764 151.669 156.561 152.27 156.567C152.713 156.58 153.148 156.689 153.545 156.886C153.942 157.083 154.292 157.364 154.57 157.709L157.635 161.893L157.682 161.948V146.052C157.682 145.263 157.995 144.507 158.552 143.949C159.11 143.391 159.866 143.078 160.655 143.078C161.444 143.078 162.2 143.391 162.758 143.949C163.315 144.507 163.629 145.263 163.629 146.052V156.452C163.594 156.069 163.64 155.683 163.763 155.319C163.885 154.955 164.083 154.621 164.342 154.337C164.601 154.053 164.916 153.827 165.268 153.672C165.62 153.517 166 153.437 166.384 153.437C166.768 153.437 167.148 153.517 167.5 153.672C167.851 153.827 168.167 154.053 168.426 154.337C168.685 154.621 168.883 154.955 169.005 155.319C169.128 155.683 169.174 156.069 169.139 156.452V158.62C169.105 158.237 169.15 157.851 169.273 157.487C169.396 157.123 169.593 156.789 169.852 156.505C170.111 156.221 170.427 155.995 170.778 155.84C171.13 155.685 171.51 155.605 171.894 155.605C172.279 155.605 172.659 155.685 173.01 155.84C173.362 155.995 173.677 156.221 173.937 156.505C174.196 156.789 174.393 157.123 174.516 157.487C174.639 157.851 174.684 158.237 174.65 158.62V160.29C174.615 159.907 174.661 159.522 174.783 159.158C174.906 158.794 175.103 158.459 175.363 158.175C175.622 157.892 175.937 157.665 176.289 157.51C176.64 157.355 177.02 157.275 177.405 157.275C177.789 157.275 178.169 157.355 178.521 157.51C178.872 157.665 179.188 157.892 179.447 158.175C179.706 158.459 179.903 158.794 180.026 159.158C180.149 159.522 180.194 159.907 180.16 160.29V170.429C180.106 173.548 178.696 178.805 173.738 178.805C173.378 178.821 170.328 178.997 166.858 178.997L166.851 178.996Z" fill="currentColor" stroke="currentColor" stroke-width="1.5" opacity="0.8"/>
<path className="text-404" d="M93.8378 133.792L91.1497 132.256L101.166 117.6L103.438 119.68L93.8378 133.792ZM91.1497 135.2V132.256L93.3258 131.968H109.23V135.2H91.1497ZM101.518 140V119.744L101.198 117.6H105.07V140H101.518ZM120.492 140.384C118.742 140.384 117.185 139.893 115.82 138.912C114.454 137.909 113.377 136.544 112.588 134.816C111.82 133.067 111.436 131.061 111.436 128.8C111.436 126.539 111.82 124.544 112.588 122.816C113.377 121.067 114.444 119.701 115.788 118.72C117.153 117.717 118.721 117.216 120.492 117.216C122.262 117.216 123.83 117.717 125.196 118.72C126.561 119.701 127.628 121.067 128.396 122.816C129.185 124.544 129.58 126.539 129.58 128.8C129.58 131.061 129.185 133.067 128.396 134.816C127.628 136.544 126.561 137.909 125.196 138.912C123.852 139.893 122.284 140.384 120.492 140.384ZM120.524 137.024C121.569 137.024 122.497 136.672 123.308 135.968C124.14 135.264 124.78 134.293 125.228 133.056C125.697 131.819 125.932 130.4 125.932 128.8C125.932 127.2 125.697 125.781 125.228 124.544C124.78 123.285 124.14 122.304 123.308 121.6C122.497 120.896 121.558 120.544 120.492 120.544C119.425 120.544 118.486 120.896 117.676 121.6C116.865 122.304 116.225 123.275 115.756 124.512C115.308 125.749 115.084 127.179 115.084 128.8C115.084 130.4 115.308 131.819 115.756 133.056C116.225 134.293 116.865 135.264 117.676 135.968C118.508 136.672 119.457 137.024 120.524 137.024ZM134.557 133.792L131.868 132.256L141.885 117.6L144.157 119.68L134.557 133.792ZM131.868 135.2V132.256L134.045 131.968H149.949V135.2H131.868ZM142.237 140V119.744L141.917 117.6H145.789V140H142.237Z" fill="currentColor"/>
<defs>
<linearGradient id="paint0_linear_5191_34893" x1="120" y1="0" x2="120" y2="240" gradientUnits="userSpaceOnUse">
<stop stop-color="#E3ECFA"/>
<stop offset="1" stop-color="#DAE7FF"/>
</linearGradient>
</defs>
</svg>
