<?xml version="1.0" encoding="UTF-8"?>
<svg version="1.1" xmlns="http://www.w3.org/2000/svg" width="1080" height="1080">
<path d="M0 0 C356.4 0 712.8 0 1080 0 C1080 356.4 1080 712.8 1080 1080 C723.6 1080 367.2 1080 0 1080 C0 723.6 0 367.2 0 0 Z " fill="transparent" transform="translate(0,0)"/>
<path d="M0 0 C3.25129486 1.03751698 5.77867073 2.35965935 8.67211914 4.16992188 C9.76758057 4.84667969 10.86304199 5.5234375 11.99169922 6.22070312 C12.5696524 6.58373535 13.14760559 6.94676758 13.74307251 7.32080078 C16.84646324 9.26952834 19.96974046 11.18601026 23.09008789 13.10742188 C23.73629593 13.50654785 24.38250397 13.90567383 25.04829407 14.31689453 C32.06405965 18.64099862 39.17205709 22.80370244 46.29321289 26.95117188 C53.9894514 31.4342465 61.6657706 35.94567484 69.29806519 40.53665161 C75.50484778 44.26997892 81.73108436 47.97007321 87.96072388 51.6651001 C89.99095249 52.86931689 92.02089679 54.07401178 94.05078125 55.27880859 C98.36052171 57.83666211 102.67059001 60.39396284 106.98071289 62.95117188 C111.98801821 65.92202137 116.99517648 68.89311814 122.00198364 71.86480713 C123.97054914 73.03304967 125.93936801 74.20086428 127.90820312 75.36865234 C134.73741179 79.42092542 141.55493532 83.49194977 148.36196899 87.58135986 C154.54839721 91.29605059 160.75159348 94.98222589 166.95797729 98.66345215 C168.99646188 99.8725855 171.03463903 101.08223576 173.07275391 102.29199219 C179.46015795 106.08313704 185.84841807 109.87283708 192.23725891 113.66156006 C195.63116172 115.67434021 199.02477867 117.68760182 202.41821289 119.70117188 C203.41783554 120.29430176 203.41783554 120.29430176 204.43765259 120.89941406 C214.37314196 126.79596515 224.28699724 132.72738413 234.18920898 138.6796875 C241.48868382 143.06433883 248.8101254 147.41026244 256.14501953 151.73535156 C264.78763366 156.83233772 273.41613629 161.95294897 282.04321289 167.07617188 C282.75051544 167.49612427 283.45781799 167.91607666 284.18655396 168.34875488 C286.21308426 169.55201002 288.23950299 170.7554528 290.26586914 171.95898438 C290.87015747 172.31781708 291.4744458 172.67664978 292.0970459 173.0463562 C293.72543943 174.01377935 295.35310014 174.9824357 296.98071289 175.95117188 C297.8575977 176.36136525 298.7344825 176.77155862 299.63793957 177.1941821 C301.98071289 178.95117188 301.98071289 178.95117188 302.61206138 181.63160592 C302.61653146 183.269967 302.61653146 183.269967 302.62109184 184.94142628 C302.64435014 186.83109441 302.64435014 186.83109441 302.6680783 188.75893766 C302.6600309 190.16480007 302.65150331 191.5706598 302.64254761 192.97651672 C302.65116797 194.46389638 302.66195709 195.9512648 302.67473614 197.43861455 C302.70346983 201.53637138 302.70077018 205.63360546 302.69297242 209.73143375 C302.68990261 214.14674263 302.71544064 218.56189877 302.73718262 222.97714233 C302.77490625 231.63160173 302.78488607 240.28588142 302.78421949 248.94041506 C302.78386287 255.97359279 302.79176186 263.00671305 302.80554581 270.03987694 C302.84801469 292.14175881 302.86046428 314.24346372 302.85088064 336.34538134 C302.8444925 353.79125111 302.88445251 371.23666249 302.9457656 388.68241391 C303.00819069 406.584231 303.03721478 424.48582661 303.03086102 442.3877551 C303.02794945 452.44293746 303.03875134 462.49767203 303.08510971 472.55275917 C303.12428245 481.11405003 303.13232272 489.67466698 303.09979127 498.23599783 C303.08407234 502.60572235 303.08294213 506.97417355 303.12085342 511.34379005 C303.15518457 515.34354215 303.14805655 519.34098806 303.10773934 523.34066453 C303.10045634 524.7881884 303.10841392 526.23588488 303.13305543 527.68321732 C303.30487465 538.50192299 303.30487465 538.50192299 300.02099538 542.09601438 C297.72905732 543.65033124 295.50587924 544.8258891 292.98071289 545.95117188 C291.86978271 546.62809082 290.75885254 547.30500977 289.61425781 548.00244141 C288.57374268 548.60685059 287.53322754 549.21125977 286.46118164 549.83398438 C285.88459808 550.17019806 285.30801453 550.50641174 284.71395874 550.85281372 C283.49407758 551.56389087 282.27350774 552.27378778 281.05227661 552.98254395 C277.8191543 554.85924951 274.59153979 556.74538594 271.36352539 558.63085938 C270.72405472 559.00412354 270.08458405 559.3773877 269.42573547 559.76196289 C264.10782017 562.86912689 258.81803448 566.02137616 253.54321289 569.20117188 C246.95683867 573.16932681 240.35368659 577.106882 233.73071289 581.01367188 C224.53590447 586.43889115 215.34894993 591.87718251 206.16821289 597.32617188 C205.48129364 597.73382782 204.79437439 598.14148376 204.0866394 598.56149292 C195.13910324 603.87269412 186.20794029 609.21002528 177.29321289 614.57617188 C167.84921939 620.26090583 158.3482076 625.8435102 148.82852173 631.39996338 C139.23621016 637.00264814 129.72221355 642.72347773 120.24179077 648.51312256 C110.7778567 654.28973418 101.24042762 659.92904192 91.66098022 665.51165771 C82.64398387 670.76908767 73.69908324 676.13282661 64.79321289 681.57617188 C54.81871716 687.67151358 44.76470525 693.60900738 34.60424805 699.39086914 C28.99466931 702.59295699 23.45108169 705.8707408 17.97290039 709.29101562 C16.82093019 710.00460348 15.66883225 710.71798517 14.51660156 711.43115234 C12.33003073 712.79108302 10.15258338 714.16582523 7.98583984 715.55712891 C7.00832764 716.16282715 6.03081543 716.76852539 5.02368164 717.39257812 C4.16798584 717.93599854 3.31229004 718.47941895 2.43066406 719.03930664 C-0.01928711 719.95117188 -0.01928711 719.95117188 -2.4777832 719.31396484 C-5.25921325 717.82251984 -8.00719268 716.30826591 -10.72631836 714.70507812 C-11.85392578 714.04233887 -12.9815332 713.37959961 -14.14331055 712.69677734 C-15.37287377 711.96919556 -16.60236384 711.24149013 -17.83178711 710.51367188 C-19.11973282 709.75448211 -20.4078217 708.99553518 -21.69604492 708.23681641 C-25.80697604 705.81363819 -29.91327612 703.3826745 -34.01928711 700.95117188 C-35.382382 700.14465412 -36.74550033 699.33817599 -38.10864258 698.53173828 C-52.67695228 689.91074143 -67.21523804 681.24158868 -81.71948242 672.51318359 C-90.23284184 667.40050384 -98.79801894 662.37926628 -107.37161255 657.36862183 C-116.8606561 651.82149694 -126.30478507 646.20434106 -135.72216797 640.53613281 C-143.15831599 636.06207496 -150.6136926 631.62168918 -158.08178711 627.20117188 C-159.1890918 626.54568359 -160.29639648 625.89019531 -161.43725586 625.21484375 C-163.15759794 624.19658192 -164.87794084 623.17832147 -166.59835815 622.16018677 C-173.78325178 617.90793316 -180.96453041 613.64959241 -188.14428711 609.38867188 C-188.82279724 608.9860614 -189.50130737 608.58345093 -190.20037842 608.16864014 C-200.06241466 602.31558082 -209.90014884 596.42336627 -219.72558594 590.5090332 C-228.1638224 585.44066263 -236.65838811 580.47131877 -245.15939331 575.50942993 C-255.60381663 569.40898204 -265.95839206 563.16960746 -276.28344727 556.86962891 C-283.58547446 552.41701966 -290.91601588 548.02151165 -298.31323242 543.72875977 C-302.92329506 541.04716392 -302.92329506 541.04716392 -304.01928711 539.95117188 C-304.11697083 538.03291326 -304.14300025 536.11099733 -304.14233494 534.19025326 C-304.14432599 532.93075641 -304.14631703 531.67125955 -304.14836842 530.37359613 C-304.14551482 528.95771767 -304.14256921 527.5418394 -304.13954163 526.1259613 C-304.1399772 524.63604513 -304.14085184 523.14612903 -304.14213079 521.65621334 C-304.14437854 517.54249486 -304.14035067 513.42880216 -304.13535273 509.31508696 C-304.1310524 504.88629696 -304.13249436 500.45750854 -304.133255 496.02871704 C-304.13378051 488.34904572 -304.13063098 480.66938286 -304.12501717 472.98971367 C-304.11690569 461.88606774 -304.11428731 450.78242592 -304.11302917 439.67877734 C-304.1108381 421.66581343 -304.10417651 403.65285404 -304.09472656 385.63989258 C-304.08555388 368.13728864 -304.07847234 350.63468593 -304.07421875 333.13208008 C-304.07395603 332.0540374 -304.0736933 330.97599472 -304.07342262 329.86528408 C-304.07211762 324.457305 -304.07085391 319.04932591 -304.06961071 313.64134681 C-304.05923637 268.7446187 -304.04161655 223.84789552 -304.01928711 178.95117188 C-302.93280884 178.34199921 -301.84633057 177.73282654 -300.72692871 177.10519409 C-299.28074211 176.29330886 -297.83457621 175.48138674 -296.38842773 174.66943359 C-295.67479065 174.26943649 -294.96115356 173.86943939 -294.22589111 173.45732117 C-288.25724101 170.1046058 -282.37340417 166.62506953 -276.51928711 163.07617188 C-274.35957576 161.77335073 -272.19939563 160.47130647 -270.03881836 159.16992188 C-269.47802078 158.83199615 -268.91722321 158.49407043 -268.33943176 158.14590454 C-261.9935236 154.32615909 -255.61816266 150.55627243 -249.24468994 146.78277588 C-238.33540564 140.32359347 -227.46449539 133.80847418 -216.64428711 127.20117188 C-206.70989224 121.13572686 -196.68254538 115.25089242 -186.58276367 109.46484375 C-178.27141028 104.6960757 -170.04125056 99.80389009 -161.83496094 94.85693359 C-153.25199034 89.6837644 -144.64008271 84.56099007 -136.01928711 79.45117188 C-126.43906437 73.77191796 -116.87302868 68.07078959 -107.33178711 62.32617188 C-97.88785993 56.64132952 -88.38678042 51.05883273 -78.86709595 45.50238037 C-69.282221 39.9040392 -59.77453542 34.1892419 -50.30252075 28.40231323 C-39.75668141 21.96219054 -29.11812317 15.68906023 -18.43334961 9.48242188 C-17.8472995 9.14116776 -17.26124939 8.79991364 -16.65744019 8.44831848 C-15.0786392 7.52927478 -13.49847824 6.61256843 -11.91821289 5.69604492 C-8.93008409 3.96909514 -8.93008409 3.96909514 -6.02270508 1.66918945 C-3.01928711 -0.04882812 -3.01928711 -0.04882812 0 0 Z " fill="#124262" transform="translate(541.019287109375,184.048828125)"/>
<path d="M0 0 C3.29281678 2.94620449 3.29281678 2.94620449 3.50380117 5.97246033 C3.50558974 6.72930066 3.50737831 7.48614099 3.50922108 8.26591587 C3.51367892 9.13867997 3.51813676 10.01144406 3.52272969 10.91065556 C3.52254533 11.87531882 3.52236097 12.83998208 3.52217102 13.83387756 C3.52584771 14.85420796 3.5295244 15.87453836 3.5333125 16.92578787 C3.54438334 20.36727829 3.54819896 23.80873855 3.55200195 27.25024414 C3.55826412 29.70881243 3.5649107 32.16737976 3.57191467 34.62594604 C3.59116949 42.02158649 3.60174816 49.41721893 3.61064246 56.81287709 C3.61502481 60.29591614 3.62039188 63.77895366 3.62563133 67.2619915 C3.64264715 78.84197836 3.65714003 90.42196427 3.66438007 102.00196171 C3.66628997 105.00806238 3.6682103 108.01416303 3.67016602 111.02026367 C3.67064976 111.76741618 3.6711335 112.51456869 3.6716319 113.28436219 C3.67992726 125.38030664 3.70525421 137.47615204 3.73774669 149.57205326 C3.77083768 161.99212832 3.7888308 174.4121531 3.79202431 186.83227247 C3.79418787 193.80503854 3.80291346 200.7776603 3.82848549 207.75038338 C3.85249622 214.31259454 3.85600531 220.87459299 3.84572411 227.43685532 C3.84522824 229.84385859 3.85156347 232.25087458 3.86528015 234.65783882 C3.88297842 237.94794909 3.8759021 241.23712585 3.86274719 244.52723694 C3.87371644 245.47628515 3.88468568 246.42533336 3.89598733 247.4031406 C3.82529022 254.74415104 2.11443323 260.83376238 -2.6394043 266.54516602 C-7.95953324 270.98523682 -13.40255989 274.66511043 -19.4375 278.0625 C-21.39559987 279.19216014 -23.35257794 280.32376637 -25.30859375 281.45703125 C-26.33710449 282.05080566 -27.36561523 282.64458008 -28.42529297 283.25634766 C-33.41065274 286.16783428 -38.335192 289.17747358 -43.26132202 292.18777466 C-54.00102705 298.7490741 -64.79431681 305.2151234 -75.625 311.625 C-86.8031756 318.24085988 -97.93056105 324.93298557 -109.02050781 331.69555664 C-118.09624353 337.2233855 -127.22909147 342.6517364 -136.375 348.0625 C-147.12457457 354.38986148 -147.12457457 354.38986148 -157.74278259 360.93341064 C-165.65231089 365.94075448 -173.63638147 370.82136511 -181.66088867 375.6418457 C-183.07163363 376.49136613 -184.48024792 377.34443714 -185.88647461 378.20141602 C-210.89483872 393.42742327 -210.89483872 393.42742327 -221.625 391.125 C-227.06514428 388.55889421 -229.16537502 385.40863884 -231.625 380.125 C-232.84977613 374.78518418 -232.7788111 369.48315408 -232.78562927 364.03553772 C-232.793261 362.51617486 -232.793261 362.51617486 -232.80104691 360.9661178 C-232.81673651 357.57384873 -232.82528708 354.18160091 -232.83374023 350.78930664 C-232.84328112 348.35645921 -232.85317238 345.92361313 -232.86338806 343.49076843 C-232.89202714 336.19470694 -232.91184114 328.89863938 -232.92878041 321.60254374 C-232.93357977 319.54116232 -232.9385625 317.47978141 -232.94358563 315.41840053 C-232.97454661 302.60872509 -233.00122112 289.79904502 -233.01800442 276.98934269 C-233.02195365 274.02617955 -233.0259567 271.06301649 -233.0300293 268.09985352 C-233.03103766 267.36341023 -233.03204602 266.62696695 -233.03308494 265.86820721 C-233.0501041 253.92954063 -233.09123345 241.99108087 -233.14205229 230.05251534 C-233.19382746 217.78826764 -233.22294588 205.52412641 -233.2302013 193.25977033 C-233.23486211 186.37646684 -233.24959887 179.49350285 -233.2899456 172.61030769 C-233.32783765 166.13828286 -233.33524382 159.66667783 -233.32193947 153.19455147 C-233.32199352 150.81894106 -233.33233242 148.44330537 -233.3536911 146.06779099 C-233.3812908 142.82497218 -233.37189908 139.58428103 -233.35325623 136.34144592 C-233.37005115 135.40097335 -233.38684608 134.46050079 -233.40414995 133.49152905 C-233.32082612 127.69394693 -232.21349789 124.65269269 -228.12780911 120.48590559 C-222.22780882 115.14301585 -215.50277309 111.39077153 -208.4375 107.8125 C-207.77250488 107.47484619 -207.10750977 107.13719238 -206.42236328 106.78930664 C-200.09279316 103.68113388 -194.1185115 101.83494644 -187 101.75 C-185.91460937 101.72164063 -184.82921875 101.69328125 -183.7109375 101.6640625 C-179.89988556 102.23330823 -178.32857449 103.42142551 -175.625 106.125 C-173.44143077 109.52953291 -173.3726057 112.33698722 -173.36671448 116.33615112 C-173.35988647 117.61193024 -173.35305847 118.88770935 -173.34602356 120.20214844 C-173.3484429 121.61376981 -173.35102718 123.02539091 -173.35375977 124.43701172 C-173.34937204 125.92538742 -173.34406972 127.41376066 -173.33792114 128.90213013 C-173.32642321 132.106205 -173.32096188 135.31021376 -173.32003975 138.51430893 C-173.31809879 143.58228315 -173.30004403 148.6501207 -173.27928162 153.7180481 C-173.23009558 166.30690765 -173.19921342 178.89580435 -173.17797852 191.48474121 C-173.16145284 201.26660637 -173.1386295 211.04835444 -173.09495777 220.83014119 C-173.07318867 225.86633915 -173.06512289 230.90231466 -173.06735051 235.93855643 C-173.06568203 239.07460593 -173.05162279 242.2105106 -173.03413773 245.34650803 C-173.02854533 246.79850714 -173.02804646 248.25053637 -173.03307533 249.70253754 C-173.03923077 251.6883239 -173.02521984 253.67414197 -173.01026917 255.65988159 C-173.00825784 256.77005583 -173.00624651 257.88023006 -173.00417423 259.02404594 C-172.40974633 263.88538268 -170.70326563 267.1276043 -167.125 270.4375 C-161.94281639 273.93547394 -156.66264909 273.73746205 -150.625 273.125 C-142.36837819 270.4771745 -134.89432504 266.19998413 -127.5 261.75 C-125.39891222 260.50440723 -123.29733202 259.25964476 -121.1953125 258.015625 C-120.11797852 257.37560547 -119.04064453 256.73558594 -117.93066406 256.07617188 C-112.44014759 252.83538845 -106.90503085 249.67270025 -101.375 246.5 C-93.32371039 241.86346202 -85.29263273 237.19562819 -77.3125 232.4375 C-76.50071289 231.95651855 -75.68892578 231.47553711 -74.85253906 230.97998047 C-66.59833463 226.26816741 -66.59833463 226.26816741 -61.375 218.625 C-61.06046875 217.8721875 -60.7459375 217.119375 -60.421875 216.34375 C-58.78309691 211.78087766 -58.4813892 207.6585369 -58.49369812 202.82635498 C-58.49158241 202.08945883 -58.48946669 201.35256268 -58.48728687 200.59333634 C-58.48129347 198.1230817 -58.48228655 195.65287823 -58.4831543 193.18261719 C-58.48012234 191.41177789 -58.47660078 189.64093936 -58.47262573 187.87010193 C-58.4647388 184.05544701 -58.45959257 180.24080145 -58.45633507 176.42613983 C-58.45042263 170.39150636 -58.43387978 164.3569318 -58.41499329 158.32232666 C-58.40865593 156.25584034 -58.4023303 154.18935398 -58.39601612 152.12286758 C-58.39285031 151.08796708 -58.3896845 150.05306657 -58.38642275 148.98680544 C-58.34435686 134.93799141 -58.31137299 120.88920485 -58.29907227 106.84033203 C-58.2906894 97.3634789 -58.2681904 87.88677165 -58.2297166 78.4099915 C-58.20996389 73.3962826 -58.1975488 68.38279174 -58.20255089 63.36904144 C-58.20720067 58.65097855 -58.19337379 53.93332882 -58.16553879 49.2153492 C-58.15863265 47.48683338 -58.15849424 45.75827479 -58.16573906 44.02976036 C-58.23654704 25.23295051 -58.23654704 25.23295051 -50.75 17.625 C-45.48551086 12.68603364 -38.97234876 9.4522786 -32.625 6.125 C-31.9841748 5.78871582 -31.34334961 5.45243164 -30.68310547 5.10595703 C-9.25978836 -6.04583269 -9.25978836 -6.04583269 0 0 Z " fill="#FDFDFD" transform="translate(519.625,266.875)"/>
<path d="M0 0 C2.71809822 0.96210443 5.04662775 2.27433885 7.54077148 3.72363281 C8.59901123 4.33561523 9.65725098 4.94759766 10.74755859 5.578125 C11.87556885 6.23844727 13.0035791 6.89876953 14.16577148 7.57910156 C15.33703613 8.26309052 16.50834186 8.94700913 17.6796875 9.63085938 C19.45949995 10.67081687 21.23866844 11.71181905 23.01625061 12.75558472 C26.6412586 14.88324065 30.28434337 16.97499311 33.94311523 19.04394531 C43.6943716 24.62343035 51.80656597 30.1921144 59.16577148 38.76660156 C57.71529332 42.44368227 56.03956729 43.76265843 52.63452148 45.69238281 C51.6922168 46.23378906 50.74991211 46.77519531 49.77905273 47.33300781 C48.75166992 47.90921875 47.72428711 48.48542969 46.66577148 49.07910156 C45.59713867 49.69011719 44.52850586 50.30113281 43.42749023 50.93066406 C41.15902967 52.2273045 38.88812405 53.51967524 36.61499023 54.80810547 C31.11474336 57.93119299 25.64203625 61.10172042 20.16577148 64.26660156 C17.97829896 65.52706591 15.79079899 66.78748264 13.60327148 68.04785156 C7.4454941 71.60041544 1.30348871 75.1795188 -4.83422852 78.76660156 C-14.235346 84.2609222 -23.66114233 89.71121063 -33.09692383 95.14575195 C-41.61503565 100.05498196 -50.11390138 104.99651678 -58.5949707 109.96948242 C-62.80850678 112.43685241 -67.02409392 114.89055978 -71.30297852 117.24316406 C-71.95427734 117.6035376 -72.60557617 117.96391113 -73.27661133 118.33520508 C-74.92106445 119.23938777 -76.57259347 120.13067124 -78.22485352 121.02050781 C-81.6898014 123.33911815 -83.97223879 126.0426221 -85.83422852 129.76660156 C-86.35274323 135.88507521 -85.62461194 139.73230626 -81.83422852 144.76660156 C-79.66079676 146.55968276 -77.70474659 147.99604982 -75.33422852 149.45410156 C-74.68550781 149.86998535 -74.03678711 150.28586914 -73.3684082 150.71435547 C-67.16902423 154.65188067 -60.85203672 158.40805121 -54.53491211 162.15283203 C-48.59643664 165.67707275 -42.76744758 169.3450366 -36.95922852 173.07910156 C-21.90754395 182.70342889 -8.55278853 189.66557649 9.85327148 186.07910156 C27.14429499 181.41020322 42.60525867 170.98859724 57.72045898 161.7421875 C66.82455818 156.17397018 75.97994176 150.69881182 85.16577148 145.26660156 C95.26851869 139.28953198 105.33349878 133.25672883 115.35327148 127.14160156 C126.26463244 120.48331855 137.25687196 113.97588578 148.31298828 107.56103516 C149.4413208 106.90441895 150.56965332 106.24780273 151.73217773 105.57128906 C152.81515137 104.94319336 153.898125 104.31509766 155.01391602 103.66796875 C159.01061108 101.2569493 162.84252388 98.6278179 166.64599609 95.92333984 C169.95443076 94.40455644 171.70095416 94.78235348 175.16577148 95.76660156 C177.33374023 96.85131836 177.33374023 96.85131836 179.35327148 98.21582031 C180.12356689 98.72725586 180.8938623 99.23869141 181.6875 99.765625 C182.50532959 100.32282227 183.32315918 100.88001953 184.16577148 101.45410156 C185.94475274 102.64174872 187.7247384 103.82789247 189.50561523 105.01269531 C190.42971191 105.62999512 191.35380859 106.24729492 192.3059082 106.88330078 C196.12242763 109.39658667 199.99685433 111.81178354 203.87329102 114.23120117 C214.13981792 120.65151169 223.59511925 127.15127562 232.16577148 135.76660156 C215.87034284 145.72774561 199.50605927 155.54221506 182.98461914 165.12548828 C178.46924461 167.75430758 173.97351324 170.41604755 169.47827148 173.07910156 C160.88816078 178.16570227 152.28046056 183.22179241 143.66577148 188.26660156 C135.15602301 193.25019516 126.65215292 198.24327264 118.16577148 203.26660156 C109.05871051 208.65732824 99.93080101 214.0120536 90.7986145 219.36004639 C83.49594796 223.6369848 76.19787365 227.92130611 68.91357422 232.22949219 C67.06876609 233.32057496 65.22324802 234.41045842 63.37695312 235.49902344 C59.77145869 237.62562867 56.16966399 239.75461646 52.60327148 241.94628906 C30.69508324 255.2395387 3.15590359 258.47895351 -21.93579102 253.50097656 C-23.37051758 253.13746094 -23.37051758 253.13746094 -24.83422852 252.76660156 C-25.95571289 252.48300781 -27.07719727 252.19941406 -28.23266602 251.90722656 C-39.64036607 248.55058987 -49.60393421 242.71834245 -59.83422852 236.76660156 C-60.76412598 236.22825684 -61.69402344 235.68991211 -62.65209961 235.13525391 C-67.63028075 232.25092899 -72.59865339 229.35030703 -77.56079102 226.43847656 C-83.9666974 222.68211252 -90.39837919 218.97136384 -96.83422852 215.26660156 C-106.1687681 209.89019513 -115.48321204 204.48074164 -124.78198242 199.04272461 C-131.1240851 195.3371619 -137.48382635 191.66372981 -143.85424805 188.00708008 C-149.18924949 184.9412595 -154.51357867 181.85724754 -159.83422852 178.76660156 C-160.74624023 178.23873047 -161.65825195 177.71085938 -162.59790039 177.16699219 C-174.83473258 170.04955706 -184.481282 163.86647577 -190.83422852 150.76660156 C-191.19516602 150.07050781 -191.55610352 149.37441406 -191.92797852 148.65722656 C-195.01654679 142.21383414 -194.8856678 132.89425177 -193.15063477 126.08300781 C-187.73507051 111.67895518 -178.12270399 103.69569077 -165.02172852 96.32910156 C-162.8687987 95.09574903 -160.71647705 93.86133441 -158.56469727 92.62597656 C-157.45400879 91.99111328 -156.34332031 91.35625 -155.19897461 90.70214844 C-149.7131816 87.54648402 -144.27411353 84.31306164 -138.83422852 81.07910156 C-137.72692383 80.42200195 -136.61961914 79.76490234 -135.47875977 79.08789062 C-132.55288617 77.35148439 -129.62751518 75.61423822 -126.70245361 73.87646484 C-121.33219915 70.68613823 -115.96122269 67.49702681 -110.59042358 64.30761719 C-109.2113537 63.4886425 -107.83230503 62.66963208 -106.45327759 61.85058594 C-97.28065848 56.40277284 -88.10254076 50.96445652 -78.91577148 45.54052734 C-68.96332301 39.66400243 -59.0216028 33.76939469 -49.07951355 27.87536621 C-45.53412511 25.77370317 -41.98808433 23.67314593 -38.44143677 21.5736084 C-37.24643258 20.86613964 -36.05150608 20.15853962 -34.85665894 19.45080566 C-31.96142562 17.73591639 -29.06519519 16.02278438 -26.16723633 14.3125 C-21.39886025 11.49450155 -16.6419639 8.66738042 -11.94750977 5.72753906 C-11.24722656 5.2923999 -10.54694336 4.85726074 -9.82543945 4.40893555 C-8.06285028 3.30787509 -6.30936589 2.19227392 -4.55688477 1.07519531 C-1.83422852 -0.23339844 -1.83422852 -0.23339844 0 0 Z " fill="#FCFDFD" transform="translate(548.834228515625,567.2333984375)"/>
<path d="M0 0 C9.32442539 -1.35981204 17.99278145 4.16625683 25.63989258 8.92236328 C27.82149497 10.27130148 30.03511929 11.57023199 32.28173828 12.80786133 C44.22314709 19.83888665 48.60515213 30.29824553 54.125 42.5625 C55.08254703 44.6141677 56.0437585 46.66412896 57.00854492 48.71240234 C58.88277572 52.7043666 60.73776201 56.70420461 62.57275391 60.71435547 C65.40169008 66.89314293 68.34585733 73.01119624 71.3125 79.125 C72.21844868 81.01775049 73.1233818 82.91098737 74.02734375 84.8046875 C77.77634341 92.63604699 81.57802362 100.44182665 85.375 108.25 C91.18896149 120.20695452 96.98588689 132.1717988 102.76123047 144.14746094 C106.82378835 152.5692999 110.89880497 160.98501091 114.98013306 169.39776611 C120.15710762 180.06897321 125.33169062 190.74132302 130.49075317 201.42120361 C131.36339724 203.2260032 132.23820283 205.02975714 133.11303711 206.83349609 C135.76926814 212.32117028 138.39004626 217.81910393 140.91796875 223.3671875 C141.3680127 224.34526367 141.81805664 225.32333984 142.28173828 226.33105469 C143.10666239 228.1306032 143.9198076 229.93562181 144.71826172 231.74707031 C146.78541577 236.23800616 148.22284862 238.96824142 153 241 C154.00874575 237.65186308 154.12710686 234.6059671 154.13130188 231.11706543 C154.13531006 229.91412338 154.13931824 228.71118134 154.14344788 227.4717865 C154.14291916 226.15529617 154.14239044 224.83880585 154.1418457 223.48242188 C154.14487837 222.07947175 154.14840012 220.67652261 154.15237427 219.27357483 C154.16025399 216.25449006 154.16540462 213.23541706 154.16866493 210.21632385 C154.17457976 205.44296662 154.19112346 200.66968374 154.21000671 195.8963623 C154.21634372 194.26178746 154.22266934 192.62721257 154.22898388 190.99263763 C154.23214969 190.17416698 154.2353155 189.35569632 154.23857725 188.51242352 C154.28065367 177.40103624 154.31364513 166.28968434 154.32592773 155.17822266 C154.33430079 147.68051774 154.35676022 140.18299767 154.3952834 132.68538523 C154.41506395 128.71807421 154.42744197 124.75103964 154.42244911 120.78367615 C154.41781195 117.0537951 154.43155607 113.32443884 154.45946121 109.59466362 C154.46969263 107.57253699 154.46010619 105.5503406 154.44996643 103.5282135 C154.46866791 101.72380043 154.46866791 101.72380043 154.48774719 99.88293457 C154.49132972 98.31446148 154.49132972 98.31446148 154.49498463 96.71430206 C155.13156119 93.29289915 156.27324773 92.10147549 159 90 C163.53568887 89.36066088 166.16448223 90.2511887 170 92.625 C171.02222656 93.25277344 172.04445313 93.88054687 173.09765625 94.52734375 C174.39883195 95.35093965 175.69955696 96.17524772 177 97 C178.83196577 98.14723998 180.66400283 99.29436614 182.49609375 100.44140625 C184.47742757 101.68873109 186.45788971 102.93744157 188.4375 104.1875 C189.39720703 104.79352051 190.35691406 105.39954102 191.34570312 106.02392578 C203.93876065 114.05078142 203.93876065 114.05078142 206 119 C206.25415033 120.99786752 206.25415033 120.99786752 206.26006222 123.14830685 C206.26712781 123.97178551 206.2741934 124.79526417 206.2814731 125.64369673 C206.27905802 126.54300761 206.27664293 127.4423185 206.27415466 128.36888123 C206.27939134 129.3284059 206.28462802 130.28793058 206.29002339 131.27653176 C206.30505632 134.50007019 206.30572926 137.72345036 206.30639648 140.94702148 C206.31401565 143.25474313 206.32244272 145.56246224 206.33161926 147.87017822 C206.35359266 154.14487523 206.36236678 160.4195235 206.36744571 166.69425464 C206.37108534 170.61203832 206.37732328 174.52980917 206.3844471 178.44758797 C206.40390356 189.2950737 206.42041656 200.14254634 206.42332363 210.99005032 C206.4235112 211.68404067 206.42369877 212.37803102 206.42389202 213.09305138 C206.42425827 214.49992184 206.42462197 215.9067923 206.42498314 217.31366276 C206.42516595 218.01203149 206.42534876 218.71040022 206.42553711 219.42993164 C206.42580793 220.47876301 206.42580793 220.47876301 206.42608423 221.54878289 C206.42962757 232.88429011 206.45666131 244.21960756 206.494035 255.55504894 C206.53209983 267.19321077 206.55103968 278.83126927 206.55178314 290.4694944 C206.55257758 297.00395306 206.56139303 303.53816683 206.58978081 310.07256889 C206.61587423 316.21628442 206.61821525 322.35955046 206.60212517 328.5032959 C206.60030384 330.7604018 206.60706259 333.01753305 206.62294388 335.27458382 C206.64327821 338.35163874 206.63292649 341.42710215 206.61473083 344.50413513 C206.6279308 345.4012153 206.64113077 346.29829546 206.65473074 347.22255987 C206.59475298 351.65087346 206.42895551 353.44544692 203.63565159 357.05662632 C201 359 201 359 198.21484375 359.58984375 C193.77126454 358.77455765 190.42538457 356.84477391 186.5625 354.5625 C185.77552734 354.10222412 184.98855469 353.64194824 184.17773438 353.16772461 C182.56225245 352.22281087 180.94847678 351.27497393 179.33642578 350.32421875 C177.20377649 349.11549464 175.05794112 348.04078718 172.83984375 347 C165.36827973 343.35343994 161.13863075 339.60884484 157.51757812 332.08984375 C157.10564461 331.27241699 156.69371109 330.45499023 156.26929474 329.61279297 C155.34253637 327.76820106 154.4240303 325.91944758 153.51235962 324.06735229 C151.89413446 320.7852846 150.25000724 317.51711034 148.60131836 314.25024414 C144.97497507 307.05765196 141.37930503 299.84991946 137.78612709 292.64071655 C135.96816443 288.9946361 134.14748731 285.34991166 132.32702637 281.70507812 C127.32557073 271.69024525 122.32817535 261.67338779 117.33084869 251.65649414 C112.74205984 242.45860158 108.15235824 233.26116727 103.55938959 224.06536102 C101.75826237 220.45899367 99.95797245 216.85221385 98.15977478 213.24438477 C91.60584909 200.09517763 85.04814522 186.9554852 78.1539917 173.9800539 C75.21496262 168.44277895 72.44511849 162.84308781 69.78125 157.16796875 C68.9039014 155.34234957 68.02495182 153.51749905 67.14453125 151.69335938 C65.80728455 148.91981981 64.47944588 146.14345926 63.17724609 143.35327148 C61.88411307 140.59049542 60.5551651 137.84751762 59.21875 135.10546875 C58.84238403 134.27734177 58.46601807 133.44921478 58.07824707 132.59599304 C55.71432008 127.84199134 53.47352567 125.37783322 48.81848145 122.73530579 C47.91656319 122.21664601 47.01464493 121.69798624 46.08539581 121.1636095 C45.05312489 120.5876228 45.05312489 120.5876228 44 120 C44.00184359 120.73145296 44.00368717 121.46290592 44.00558662 122.21652412 C44.04976596 140.01893242 44.08285673 157.82132977 44.10362434 175.6237812 C44.11393449 184.23293146 44.12798983 192.84204511 44.15087891 201.45117188 C44.17082078 208.95536698 44.18371834 216.45953557 44.18817699 223.96375644 C44.19078301 227.93673858 44.19690289 231.90964487 44.21146011 235.88260269 C44.22505662 239.62374582 44.22921846 243.364782 44.22621536 247.10594749 C44.22702605 249.13014974 44.23777687 251.1543404 44.24884033 253.17851257 C44.246091 254.38998459 44.24334167 255.6014566 44.24050903 256.84963989 C44.24327441 258.42314052 44.24327441 258.42314052 44.24609566 260.02842903 C43.97709299 263.27659893 43.14520909 265.95887461 42 269 C37.98111703 268.40405434 35.05690127 267.12503942 31.53515625 265.12109375 C30.48650391 264.52876953 29.43785156 263.93644531 28.35742188 263.32617188 C27.27009766 262.70291016 26.18277344 262.07964844 25.0625 261.4375 C24.00998047 260.84130859 22.95746094 260.24511719 21.87304688 259.63085938 C19.19104706 258.10970082 16.51307965 256.58176389 13.83674049 255.05068016 C10.75302793 253.28668812 7.66830961 251.52445611 4.58374023 249.76196289 C3.6272118 249.2153941 3.6272118 249.2153941 2.65135956 248.65778351 C1.10091196 247.7718459 -0.44954321 246.88592153 -2 246 C-2.04559674 215.09430702 -2.08100464 184.18862292 -2.10213066 153.28290431 C-2.10463216 149.63660086 -2.1072208 145.99029749 -2.10986328 142.34399414 C-2.11065021 141.25509545 -2.11065021 141.25509545 -2.11145304 140.14419881 C-2.12016253 128.38037027 -2.13593548 116.61656121 -2.15430559 104.85274424 C-2.17298954 92.78758858 -2.18411353 80.72244313 -2.18817699 68.65727359 C-2.19092518 61.20867747 -2.19961412 53.76013644 -2.21583293 46.31155727 C-2.22762578 40.60598753 -2.22891516 34.90045331 -2.22621536 29.19487381 C-2.22676758 26.84985959 -2.23077208 24.50484338 -2.23841095 22.15984154 C-2.24830075 18.96847734 -2.24599074 15.77735253 -2.24050903 12.58598328 C-2.24633472 11.64922136 -2.2521604 10.71245945 -2.25816262 9.74731082 C-2.25418052 8.89487255 -2.25019842 8.04243428 -2.24609566 7.16416454 C-2.2468551 6.42712738 -2.24761454 5.69009022 -2.24839699 4.9307186 C-2 3 -2 3 0 0 Z " fill="#FCFCFC" transform="translate(588,281)"/>
</svg>
